ISO-10303-21;
HEADER;
/* Generated by software containing ST-Developer
 * from STEP Tools, Inc. (www.steptools.com) 
 */

FILE_DESCRIPTION(
/* description */ (''),
/* implementation_level */ '2;1');

FILE_NAME(
/* name */ 'EasyTalkie-Bottom.step',
/* time_stamp */ '2026-06-05T20:00:11+02:00',
/* author */ (''),
/* organization */ (''),
/* preprocessor_version */ 'ST-DEVELOPER v20.1',
/* originating_system */ 'Autodesk Translation Framework v15.8.0.0',
/* authorisation */ '');

FILE_SCHEMA (('AUTOMOTIVE_DESIGN { 1 0 10303 214 3 1 1 }'));
ENDSEC;

DATA;
#10=MECHANICAL_DESIGN_GEOMETRIC_PRESENTATION_REPRESENTATION('',(#14,#15),
#1098);
#11=SHAPE_REPRESENTATION_RELATIONSHIP('SRR','None',#1105,#12);
#12=ADVANCED_BREP_SHAPE_REPRESENTATION('',(#13),#1097);
#13=MANIFOLD_SOLID_BREP('Body1',#670);
#14=STYLED_ITEM('',(#1116),#669);
#15=STYLED_ITEM('',(#1115),#13);
#16=FACE_BOUND('',#103,.T.);
#17=FACE_BOUND('',#104,.T.);
#18=FACE_BOUND('',#105,.T.);
#19=FACE_BOUND('',#106,.T.);
#20=FACE_BOUND('',#107,.T.);
#21=FACE_BOUND('',#112,.T.);
#22=FACE_BOUND('',#121,.T.);
#23=FACE_BOUND('',#122,.T.);
#24=FACE_BOUND('',#128,.T.);
#25=FACE_BOUND('',#129,.T.);
#26=FACE_BOUND('',#130,.T.);
#27=FACE_BOUND('',#131,.T.);
#28=CIRCLE('',#695,0.999999999999996);
#29=CIRCLE('',#696,0.999999999999996);
#30=CIRCLE('',#698,0.999999999999996);
#31=CIRCLE('',#699,0.999999999999996);
#32=CIRCLE('',#701,1.);
#33=CIRCLE('',#702,1.);
#34=CIRCLE('',#704,1.);
#35=CIRCLE('',#705,1.);
#36=CIRCLE('',#707,5.);
#37=CIRCLE('',#708,5.);
#38=CIRCLE('',#711,5.);
#39=CIRCLE('',#712,5.);
#40=CIRCLE('',#713,5.);
#41=CIRCLE('',#715,5.);
#42=CIRCLE('',#718,5.);
#43=CIRCLE('',#721,5.);
#44=CYLINDRICAL_SURFACE('',#694,0.999999999999996);
#45=CYLINDRICAL_SURFACE('',#697,0.999999999999996);
#46=CYLINDRICAL_SURFACE('',#700,1.);
#47=CYLINDRICAL_SURFACE('',#703,1.);
#48=CYLINDRICAL_SURFACE('',#706,5.);
#49=CYLINDRICAL_SURFACE('',#714,5.);
#50=CYLINDRICAL_SURFACE('',#717,5.);
#51=CYLINDRICAL_SURFACE('',#720,5.);
#52=FACE_OUTER_BOUND('',#86,.T.);
#53=FACE_OUTER_BOUND('',#87,.T.);
#54=FACE_OUTER_BOUND('',#88,.T.);
#55=FACE_OUTER_BOUND('',#89,.T.);
#56=FACE_OUTER_BOUND('',#90,.T.);
#57=FACE_OUTER_BOUND('',#91,.T.);
#58=FACE_OUTER_BOUND('',#92,.T.);
#59=FACE_OUTER_BOUND('',#93,.T.);
#60=FACE_OUTER_BOUND('',#94,.T.);
#61=FACE_OUTER_BOUND('',#95,.T.);
#62=FACE_OUTER_BOUND('',#96,.T.);
#63=FACE_OUTER_BOUND('',#97,.T.);
#64=FACE_OUTER_BOUND('',#98,.T.);
#65=FACE_OUTER_BOUND('',#99,.T.);
#66=FACE_OUTER_BOUND('',#100,.T.);
#67=FACE_OUTER_BOUND('',#101,.T.);
#68=FACE_OUTER_BOUND('',#102,.T.);
#69=FACE_OUTER_BOUND('',#108,.T.);
#70=FACE_OUTER_BOUND('',#109,.T.);
#71=FACE_OUTER_BOUND('',#110,.T.);
#72=FACE_OUTER_BOUND('',#111,.T.);
#73=FACE_OUTER_BOUND('',#113,.T.);
#74=FACE_OUTER_BOUND('',#114,.T.);
#75=FACE_OUTER_BOUND('',#115,.T.);
#76=FACE_OUTER_BOUND('',#116,.T.);
#77=FACE_OUTER_BOUND('',#117,.T.);
#78=FACE_OUTER_BOUND('',#118,.T.);
#79=FACE_OUTER_BOUND('',#119,.T.);
#80=FACE_OUTER_BOUND('',#120,.T.);
#81=FACE_OUTER_BOUND('',#123,.T.);
#82=FACE_OUTER_BOUND('',#124,.T.);
#83=FACE_OUTER_BOUND('',#125,.T.);
#84=FACE_OUTER_BOUND('',#126,.T.);
#85=FACE_OUTER_BOUND('',#127,.T.);
#86=EDGE_LOOP('',(#430,#431,#432,#433));
#87=EDGE_LOOP('',(#434,#435,#436,#437));
#88=EDGE_LOOP('',(#438,#439,#440,#441));
#89=EDGE_LOOP('',(#442,#443,#444,#445));
#90=EDGE_LOOP('',(#446,#447,#448,#449));
#91=EDGE_LOOP('',(#450,#451,#452,#453));
#92=EDGE_LOOP('',(#454,#455,#456,#457));
#93=EDGE_LOOP('',(#458,#459,#460,#461));
#94=EDGE_LOOP('',(#462,#463,#464,#465));
#95=EDGE_LOOP('',(#466,#467,#468,#469));
#96=EDGE_LOOP('',(#470,#471,#472,#473));
#97=EDGE_LOOP('',(#474,#475,#476,#477));
#98=EDGE_LOOP('',(#478,#479,#480,#481));
#99=EDGE_LOOP('',(#482,#483,#484,#485));
#100=EDGE_LOOP('',(#486,#487,#488,#489));
#101=EDGE_LOOP('',(#490,#491,#492,#493));
#102=EDGE_LOOP('',(#494,#495,#496,#497,#498,#499,#500,#501));
#103=EDGE_LOOP('',(#502,#503,#504,#505));
#104=EDGE_LOOP('',(#506));
#105=EDGE_LOOP('',(#507));
#106=EDGE_LOOP('',(#508));
#107=EDGE_LOOP('',(#509));
#108=EDGE_LOOP('',(#510,#511,#512,#513));
#109=EDGE_LOOP('',(#514,#515,#516,#517));
#110=EDGE_LOOP('',(#518,#519,#520,#521));
#111=EDGE_LOOP('',(#522,#523,#524,#525));
#112=EDGE_LOOP('',(#526,#527,#528,#529));
#113=EDGE_LOOP('',(#530,#531,#532,#533));
#114=EDGE_LOOP('',(#534,#535,#536,#537));
#115=EDGE_LOOP('',(#538,#539,#540,#541));
#116=EDGE_LOOP('',(#542,#543,#544,#545,#546,#547));
#117=EDGE_LOOP('',(#548,#549,#550,#551));
#118=EDGE_LOOP('',(#552,#553,#554,#555,#556,#557));
#119=EDGE_LOOP('',(#558,#559,#560,#561));
#120=EDGE_LOOP('',(#562,#563,#564,#565,#566,#567,#568,#569));
#121=EDGE_LOOP('',(#570,#571,#572,#573));
#122=EDGE_LOOP('',(#574,#575,#576,#577));
#123=EDGE_LOOP('',(#578,#579,#580,#581));
#124=EDGE_LOOP('',(#582,#583,#584,#585));
#125=EDGE_LOOP('',(#586,#587,#588,#589));
#126=EDGE_LOOP('',(#590,#591,#592,#593,#594,#595,#596,#597));
#127=EDGE_LOOP('',(#598,#599,#600,#601,#602,#603,#604,#605));
#128=EDGE_LOOP('',(#606));
#129=EDGE_LOOP('',(#607));
#130=EDGE_LOOP('',(#608));
#131=EDGE_LOOP('',(#609));
#132=LINE('',#914,#206);
#133=LINE('',#916,#207);
#134=LINE('',#918,#208);
#135=LINE('',#919,#209);
#136=LINE('',#923,#210);
#137=LINE('',#925,#211);
#138=LINE('',#927,#212);
#139=LINE('',#928,#213);
#140=LINE('',#932,#214);
#141=LINE('',#933,#215);
#142=LINE('',#934,#216);
#143=LINE('',#937,#217);
#144=LINE('',#938,#218);
#145=LINE('',#941,#219);
#146=LINE('',#942,#220);
#147=LINE('',#944,#221);
#148=LINE('',#948,#222);
#149=LINE('',#949,#223);
#150=LINE('',#950,#224);
#151=LINE('',#953,#225);
#152=LINE('',#954,#226);
#153=LINE('',#957,#227);
#154=LINE('',#958,#228);
#155=LINE('',#960,#229);
#156=LINE('',#965,#230);
#157=LINE('',#971,#231);
#158=LINE('',#977,#232);
#159=LINE('',#983,#233);
#160=LINE('',#990,#234);
#161=LINE('',#993,#235);
#162=LINE('',#996,#236);
#163=LINE('',#998,#237);
#164=LINE('',#999,#238);
#165=LINE('',#1002,#239);
#166=LINE('',#1006,#240);
#167=LINE('',#1010,#241);
#168=LINE('',#1014,#242);
#169=LINE('',#1016,#243);
#170=LINE('',#1018,#244);
#171=LINE('',#1019,#245);
#172=LINE('',#1022,#246);
#173=LINE('',#1026,#247);
#174=LINE('',#1027,#248);
#175=LINE('',#1030,#249);
#176=LINE('',#1034,#250);
#177=LINE('',#1035,#251);
#178=LINE('',#1038,#252);
#179=LINE('',#1040,#253);
#180=LINE('',#1042,#254);
#181=LINE('',#1043,#255);
#182=LINE('',#1046,#256);
#183=LINE('',#1049,#257);
#184=LINE('',#1053,#258);
#185=LINE('',#1055,#259);
#186=LINE('',#1057,#260);
#187=LINE('',#1058,#261);
#188=LINE('',#1061,#262);
#189=LINE('',#1062,#263);
#190=LINE('',#1064,#264);
#191=LINE('',#1065,#265);
#192=LINE('',#1068,#266);
#193=LINE('',#1069,#267);
#194=LINE('',#1072,#268);
#195=LINE('',#1073,#269);
#196=LINE('',#1074,#270);
#197=LINE('',#1078,#271);
#198=LINE('',#1080,#272);
#199=LINE('',#1082,#273);
#200=LINE('',#1084,#274);
#201=LINE('',#1085,#275);
#202=LINE('',#1087,#276);
#203=LINE('',#1088,#277);
#204=LINE('',#1090,#278);
#205=LINE('',#1092,#279);
#206=VECTOR('',#738,10.);
#207=VECTOR('',#739,10.);
#208=VECTOR('',#740,10.);
#209=VECTOR('',#741,10.);
#210=VECTOR('',#744,10.);
#211=VECTOR('',#745,10.);
#212=VECTOR('',#746,10.);
#213=VECTOR('',#747,10.);
#214=VECTOR('',#750,10.);
#215=VECTOR('',#751,10.);
#216=VECTOR('',#752,10.);
#217=VECTOR('',#755,10.);
#218=VECTOR('',#756,10.);
#219=VECTOR('',#759,10.);
#220=VECTOR('',#760,10.);
#221=VECTOR('',#763,10.);
#222=VECTOR('',#766,10.);
#223=VECTOR('',#767,10.);
#224=VECTOR('',#768,10.);
#225=VECTOR('',#771,10.);
#226=VECTOR('',#772,10.);
#227=VECTOR('',#775,10.);
#228=VECTOR('',#776,10.);
#229=VECTOR('',#779,10.);
#230=VECTOR('',#784,0.999999999999996);
#231=VECTOR('',#791,0.999999999999996);
#232=VECTOR('',#798,1.);
#233=VECTOR('',#805,1.);
#234=VECTOR('',#812,10.);
#235=VECTOR('',#815,10.);
#236=VECTOR('',#818,10.);
#237=VECTOR('',#819,10.);
#238=VECTOR('',#820,10.);
#239=VECTOR('',#823,10.);
#240=VECTOR('',#826,10.);
#241=VECTOR('',#829,10.);
#242=VECTOR('',#832,10.);
#243=VECTOR('',#833,10.);
#244=VECTOR('',#834,10.);
#245=VECTOR('',#835,10.);
#246=VECTOR('',#838,10.);
#247=VECTOR('',#843,10.);
#248=VECTOR('',#844,10.);
#249=VECTOR('',#847,10.);
#250=VECTOR('',#852,10.);
#251=VECTOR('',#853,10.);
#252=VECTOR('',#854,10.);
#253=VECTOR('',#855,10.);
#254=VECTOR('',#856,10.);
#255=VECTOR('',#857,10.);
#256=VECTOR('',#860,10.);
#257=VECTOR('',#865,10.);
#258=VECTOR('',#868,10.);
#259=VECTOR('',#869,10.);
#260=VECTOR('',#870,10.);
#261=VECTOR('',#871,10.);
#262=VECTOR('',#874,10.);
#263=VECTOR('',#875,10.);
#264=VECTOR('',#876,10.);
#265=VECTOR('',#877,10.);
#266=VECTOR('',#880,10.);
#267=VECTOR('',#881,10.);
#268=VECTOR('',#884,10.);
#269=VECTOR('',#885,10.);
#270=VECTOR('',#886,10.);
#271=VECTOR('',#891,10.);
#272=VECTOR('',#892,10.);
#273=VECTOR('',#893,10.);
#274=VECTOR('',#894,10.);
#275=VECTOR('',#895,10.);
#276=VECTOR('',#898,10.);
#277=VECTOR('',#899,10.);
#278=VECTOR('',#902,10.);
#279=VECTOR('',#905,10.);
#280=VERTEX_POINT('',#912);
#281=VERTEX_POINT('',#913);
#282=VERTEX_POINT('',#915);
#283=VERTEX_POINT('',#917);
#284=VERTEX_POINT('',#921);
#285=VERTEX_POINT('',#922);
#286=VERTEX_POINT('',#924);
#287=VERTEX_POINT('',#926);
#288=VERTEX_POINT('',#930);
#289=VERTEX_POINT('',#931);
#290=VERTEX_POINT('',#936);
#291=VERTEX_POINT('',#940);
#292=VERTEX_POINT('',#946);
#293=VERTEX_POINT('',#947);
#294=VERTEX_POINT('',#952);
#295=VERTEX_POINT('',#956);
#296=VERTEX_POINT('',#962);
#297=VERTEX_POINT('',#964);
#298=VERTEX_POINT('',#968);
#299=VERTEX_POINT('',#970);
#300=VERTEX_POINT('',#974);
#301=VERTEX_POINT('',#976);
#302=VERTEX_POINT('',#980);
#303=VERTEX_POINT('',#982);
#304=VERTEX_POINT('',#986);
#305=VERTEX_POINT('',#987);
#306=VERTEX_POINT('',#989);
#307=VERTEX_POINT('',#991);
#308=VERTEX_POINT('',#995);
#309=VERTEX_POINT('',#997);
#310=VERTEX_POINT('',#1001);
#311=VERTEX_POINT('',#1003);
#312=VERTEX_POINT('',#1005);
#313=VERTEX_POINT('',#1007);
#314=VERTEX_POINT('',#1009);
#315=VERTEX_POINT('',#1012);
#316=VERTEX_POINT('',#1013);
#317=VERTEX_POINT('',#1015);
#318=VERTEX_POINT('',#1017);
#319=VERTEX_POINT('',#1021);
#320=VERTEX_POINT('',#1025);
#321=VERTEX_POINT('',#1029);
#322=VERTEX_POINT('',#1033);
#323=VERTEX_POINT('',#1036);
#324=VERTEX_POINT('',#1037);
#325=VERTEX_POINT('',#1039);
#326=VERTEX_POINT('',#1041);
#327=VERTEX_POINT('',#1045);
#328=VERTEX_POINT('',#1051);
#329=VERTEX_POINT('',#1052);
#330=VERTEX_POINT('',#1054);
#331=VERTEX_POINT('',#1056);
#332=VERTEX_POINT('',#1060);
#333=VERTEX_POINT('',#1063);
#334=VERTEX_POINT('',#1067);
#335=VERTEX_POINT('',#1071);
#336=VERTEX_POINT('',#1077);
#337=VERTEX_POINT('',#1079);
#338=VERTEX_POINT('',#1081);
#339=VERTEX_POINT('',#1083);
#340=EDGE_CURVE('',#280,#281,#132,.T.);
#341=EDGE_CURVE('',#281,#282,#133,.T.);
#342=EDGE_CURVE('',#282,#283,#134,.T.);
#343=EDGE_CURVE('',#283,#280,#135,.T.);
#344=EDGE_CURVE('',#284,#285,#136,.T.);
#345=EDGE_CURVE('',#285,#286,#137,.T.);
#346=EDGE_CURVE('',#286,#287,#138,.T.);
#347=EDGE_CURVE('',#287,#284,#139,.T.);
#348=EDGE_CURVE('',#288,#289,#140,.T.);
#349=EDGE_CURVE('',#288,#287,#141,.T.);
#350=EDGE_CURVE('',#289,#286,#142,.T.);
#351=EDGE_CURVE('',#290,#288,#143,.T.);
#352=EDGE_CURVE('',#290,#284,#144,.T.);
#353=EDGE_CURVE('',#289,#291,#145,.T.);
#354=EDGE_CURVE('',#291,#285,#146,.T.);
#355=EDGE_CURVE('',#291,#290,#147,.T.);
#356=EDGE_CURVE('',#292,#293,#148,.T.);
#357=EDGE_CURVE('',#292,#283,#149,.T.);
#358=EDGE_CURVE('',#293,#282,#150,.T.);
#359=EDGE_CURVE('',#294,#292,#151,.T.);
#360=EDGE_CURVE('',#294,#280,#152,.T.);
#361=EDGE_CURVE('',#293,#295,#153,.T.);
#362=EDGE_CURVE('',#295,#281,#154,.T.);
#363=EDGE_CURVE('',#295,#294,#155,.T.);
#364=EDGE_CURVE('',#296,#296,#28,.T.);
#365=EDGE_CURVE('',#296,#297,#156,.T.);
#366=EDGE_CURVE('',#297,#297,#29,.T.);
#367=EDGE_CURVE('',#298,#298,#30,.T.);
#368=EDGE_CURVE('',#298,#299,#157,.T.);
#369=EDGE_CURVE('',#299,#299,#31,.T.);
#370=EDGE_CURVE('',#300,#300,#32,.T.);
#371=EDGE_CURVE('',#300,#301,#158,.T.);
#372=EDGE_CURVE('',#301,#301,#33,.T.);
#373=EDGE_CURVE('',#302,#302,#34,.T.);
#374=EDGE_CURVE('',#302,#303,#159,.T.);
#375=EDGE_CURVE('',#303,#303,#35,.T.);
#376=EDGE_CURVE('',#304,#305,#36,.T.);
#377=EDGE_CURVE('',#305,#306,#160,.T.);
#378=EDGE_CURVE('',#306,#307,#37,.T.);
#379=EDGE_CURVE('',#307,#304,#161,.T.);
#380=EDGE_CURVE('',#308,#305,#162,.T.);
#381=EDGE_CURVE('',#309,#308,#163,.T.);
#382=EDGE_CURVE('',#306,#309,#164,.T.);
#383=EDGE_CURVE('',#304,#310,#165,.T.);
#384=EDGE_CURVE('',#311,#310,#38,.T.);
#385=EDGE_CURVE('',#311,#312,#166,.T.);
#386=EDGE_CURVE('',#313,#312,#39,.T.);
#387=EDGE_CURVE('',#313,#314,#167,.T.);
#388=EDGE_CURVE('',#308,#314,#40,.T.);
#389=EDGE_CURVE('',#315,#316,#168,.T.);
#390=EDGE_CURVE('',#316,#317,#169,.T.);
#391=EDGE_CURVE('',#317,#318,#170,.T.);
#392=EDGE_CURVE('',#318,#315,#171,.T.);
#393=EDGE_CURVE('',#314,#319,#172,.T.);
#394=EDGE_CURVE('',#319,#309,#41,.T.);
#395=EDGE_CURVE('',#320,#313,#173,.T.);
#396=EDGE_CURVE('',#320,#319,#174,.T.);
#397=EDGE_CURVE('',#312,#321,#175,.T.);
#398=EDGE_CURVE('',#321,#320,#42,.T.);
#399=EDGE_CURVE('',#322,#311,#176,.T.);
#400=EDGE_CURVE('',#321,#322,#177,.T.);
#401=EDGE_CURVE('',#323,#324,#178,.T.);
#402=EDGE_CURVE('',#324,#325,#179,.T.);
#403=EDGE_CURVE('',#325,#326,#180,.T.);
#404=EDGE_CURVE('',#326,#323,#181,.T.);
#405=EDGE_CURVE('',#310,#327,#182,.T.);
#406=EDGE_CURVE('',#327,#322,#43,.T.);
#407=EDGE_CURVE('',#327,#307,#183,.T.);
#408=EDGE_CURVE('',#328,#329,#184,.T.);
#409=EDGE_CURVE('',#330,#328,#185,.T.);
#410=EDGE_CURVE('',#331,#330,#186,.T.);
#411=EDGE_CURVE('',#329,#331,#187,.T.);
#412=EDGE_CURVE('',#329,#332,#188,.T.);
#413=EDGE_CURVE('',#324,#331,#189,.T.);
#414=EDGE_CURVE('',#323,#333,#190,.T.);
#415=EDGE_CURVE('',#332,#333,#191,.T.);
#416=EDGE_CURVE('',#333,#334,#192,.T.);
#417=EDGE_CURVE('',#326,#334,#193,.T.);
#418=EDGE_CURVE('',#335,#328,#194,.T.);
#419=EDGE_CURVE('',#334,#335,#195,.T.);
#420=EDGE_CURVE('',#325,#330,#196,.T.);
#421=EDGE_CURVE('',#332,#336,#197,.T.);
#422=EDGE_CURVE('',#336,#337,#198,.T.);
#423=EDGE_CURVE('',#337,#338,#199,.T.);
#424=EDGE_CURVE('',#338,#339,#200,.T.);
#425=EDGE_CURVE('',#339,#335,#201,.T.);
#426=EDGE_CURVE('',#317,#336,#202,.T.);
#427=EDGE_CURVE('',#337,#316,#203,.T.);
#428=EDGE_CURVE('',#338,#315,#204,.T.);
#429=EDGE_CURVE('',#339,#318,#205,.T.);
#430=ORIENTED_EDGE('',*,*,#340,.T.);
#431=ORIENTED_EDGE('',*,*,#341,.T.);
#432=ORIENTED_EDGE('',*,*,#342,.T.);
#433=ORIENTED_EDGE('',*,*,#343,.T.);
#434=ORIENTED_EDGE('',*,*,#344,.T.);
#435=ORIENTED_EDGE('',*,*,#345,.T.);
#436=ORIENTED_EDGE('',*,*,#346,.T.);
#437=ORIENTED_EDGE('',*,*,#347,.T.);
#438=ORIENTED_EDGE('',*,*,#348,.F.);
#439=ORIENTED_EDGE('',*,*,#349,.T.);
#440=ORIENTED_EDGE('',*,*,#346,.F.);
#441=ORIENTED_EDGE('',*,*,#350,.F.);
#442=ORIENTED_EDGE('',*,*,#351,.F.);
#443=ORIENTED_EDGE('',*,*,#352,.T.);
#444=ORIENTED_EDGE('',*,*,#347,.F.);
#445=ORIENTED_EDGE('',*,*,#349,.F.);
#446=ORIENTED_EDGE('',*,*,#353,.F.);
#447=ORIENTED_EDGE('',*,*,#350,.T.);
#448=ORIENTED_EDGE('',*,*,#345,.F.);
#449=ORIENTED_EDGE('',*,*,#354,.F.);
#450=ORIENTED_EDGE('',*,*,#355,.F.);
#451=ORIENTED_EDGE('',*,*,#354,.T.);
#452=ORIENTED_EDGE('',*,*,#344,.F.);
#453=ORIENTED_EDGE('',*,*,#352,.F.);
#454=ORIENTED_EDGE('',*,*,#356,.F.);
#455=ORIENTED_EDGE('',*,*,#357,.T.);
#456=ORIENTED_EDGE('',*,*,#342,.F.);
#457=ORIENTED_EDGE('',*,*,#358,.F.);
#458=ORIENTED_EDGE('',*,*,#359,.F.);
#459=ORIENTED_EDGE('',*,*,#360,.T.);
#460=ORIENTED_EDGE('',*,*,#343,.F.);
#461=ORIENTED_EDGE('',*,*,#357,.F.);
#462=ORIENTED_EDGE('',*,*,#361,.F.);
#463=ORIENTED_EDGE('',*,*,#358,.T.);
#464=ORIENTED_EDGE('',*,*,#341,.F.);
#465=ORIENTED_EDGE('',*,*,#362,.F.);
#466=ORIENTED_EDGE('',*,*,#363,.F.);
#467=ORIENTED_EDGE('',*,*,#362,.T.);
#468=ORIENTED_EDGE('',*,*,#340,.F.);
#469=ORIENTED_EDGE('',*,*,#360,.F.);
#470=ORIENTED_EDGE('',*,*,#364,.F.);
#471=ORIENTED_EDGE('',*,*,#365,.T.);
#472=ORIENTED_EDGE('',*,*,#366,.F.);
#473=ORIENTED_EDGE('',*,*,#365,.F.);
#474=ORIENTED_EDGE('',*,*,#367,.F.);
#475=ORIENTED_EDGE('',*,*,#368,.T.);
#476=ORIENTED_EDGE('',*,*,#369,.F.);
#477=ORIENTED_EDGE('',*,*,#368,.F.);
#478=ORIENTED_EDGE('',*,*,#370,.F.);
#479=ORIENTED_EDGE('',*,*,#371,.T.);
#480=ORIENTED_EDGE('',*,*,#372,.F.);
#481=ORIENTED_EDGE('',*,*,#371,.F.);
#482=ORIENTED_EDGE('',*,*,#373,.F.);
#483=ORIENTED_EDGE('',*,*,#374,.T.);
#484=ORIENTED_EDGE('',*,*,#375,.F.);
#485=ORIENTED_EDGE('',*,*,#374,.F.);
#486=ORIENTED_EDGE('',*,*,#376,.T.);
#487=ORIENTED_EDGE('',*,*,#377,.T.);
#488=ORIENTED_EDGE('',*,*,#378,.T.);
#489=ORIENTED_EDGE('',*,*,#379,.T.);
#490=ORIENTED_EDGE('',*,*,#377,.F.);
#491=ORIENTED_EDGE('',*,*,#380,.F.);
#492=ORIENTED_EDGE('',*,*,#381,.F.);
#493=ORIENTED_EDGE('',*,*,#382,.F.);
#494=ORIENTED_EDGE('',*,*,#376,.F.);
#495=ORIENTED_EDGE('',*,*,#383,.T.);
#496=ORIENTED_EDGE('',*,*,#384,.F.);
#497=ORIENTED_EDGE('',*,*,#385,.T.);
#498=ORIENTED_EDGE('',*,*,#386,.F.);
#499=ORIENTED_EDGE('',*,*,#387,.T.);
#500=ORIENTED_EDGE('',*,*,#388,.F.);
#501=ORIENTED_EDGE('',*,*,#380,.T.);
#502=ORIENTED_EDGE('',*,*,#389,.T.);
#503=ORIENTED_EDGE('',*,*,#390,.T.);
#504=ORIENTED_EDGE('',*,*,#391,.T.);
#505=ORIENTED_EDGE('',*,*,#392,.T.);
#506=ORIENTED_EDGE('',*,*,#375,.T.);
#507=ORIENTED_EDGE('',*,*,#372,.T.);
#508=ORIENTED_EDGE('',*,*,#369,.T.);
#509=ORIENTED_EDGE('',*,*,#366,.T.);
#510=ORIENTED_EDGE('',*,*,#388,.T.);
#511=ORIENTED_EDGE('',*,*,#393,.T.);
#512=ORIENTED_EDGE('',*,*,#394,.T.);
#513=ORIENTED_EDGE('',*,*,#381,.T.);
#514=ORIENTED_EDGE('',*,*,#393,.F.);
#515=ORIENTED_EDGE('',*,*,#387,.F.);
#516=ORIENTED_EDGE('',*,*,#395,.F.);
#517=ORIENTED_EDGE('',*,*,#396,.T.);
#518=ORIENTED_EDGE('',*,*,#386,.T.);
#519=ORIENTED_EDGE('',*,*,#397,.T.);
#520=ORIENTED_EDGE('',*,*,#398,.T.);
#521=ORIENTED_EDGE('',*,*,#395,.T.);
#522=ORIENTED_EDGE('',*,*,#397,.F.);
#523=ORIENTED_EDGE('',*,*,#385,.F.);
#524=ORIENTED_EDGE('',*,*,#399,.F.);
#525=ORIENTED_EDGE('',*,*,#400,.F.);
#526=ORIENTED_EDGE('',*,*,#401,.T.);
#527=ORIENTED_EDGE('',*,*,#402,.T.);
#528=ORIENTED_EDGE('',*,*,#403,.T.);
#529=ORIENTED_EDGE('',*,*,#404,.T.);
#530=ORIENTED_EDGE('',*,*,#384,.T.);
#531=ORIENTED_EDGE('',*,*,#405,.T.);
#532=ORIENTED_EDGE('',*,*,#406,.T.);
#533=ORIENTED_EDGE('',*,*,#399,.T.);
#534=ORIENTED_EDGE('',*,*,#379,.F.);
#535=ORIENTED_EDGE('',*,*,#407,.F.);
#536=ORIENTED_EDGE('',*,*,#405,.F.);
#537=ORIENTED_EDGE('',*,*,#383,.F.);
#538=ORIENTED_EDGE('',*,*,#408,.F.);
#539=ORIENTED_EDGE('',*,*,#409,.F.);
#540=ORIENTED_EDGE('',*,*,#410,.F.);
#541=ORIENTED_EDGE('',*,*,#411,.F.);
#542=ORIENTED_EDGE('',*,*,#412,.F.);
#543=ORIENTED_EDGE('',*,*,#411,.T.);
#544=ORIENTED_EDGE('',*,*,#413,.F.);
#545=ORIENTED_EDGE('',*,*,#401,.F.);
#546=ORIENTED_EDGE('',*,*,#414,.T.);
#547=ORIENTED_EDGE('',*,*,#415,.F.);
#548=ORIENTED_EDGE('',*,*,#416,.F.);
#549=ORIENTED_EDGE('',*,*,#414,.F.);
#550=ORIENTED_EDGE('',*,*,#404,.F.);
#551=ORIENTED_EDGE('',*,*,#417,.T.);
#552=ORIENTED_EDGE('',*,*,#418,.F.);
#553=ORIENTED_EDGE('',*,*,#419,.F.);
#554=ORIENTED_EDGE('',*,*,#417,.F.);
#555=ORIENTED_EDGE('',*,*,#403,.F.);
#556=ORIENTED_EDGE('',*,*,#420,.T.);
#557=ORIENTED_EDGE('',*,*,#409,.T.);
#558=ORIENTED_EDGE('',*,*,#402,.F.);
#559=ORIENTED_EDGE('',*,*,#413,.T.);
#560=ORIENTED_EDGE('',*,*,#410,.T.);
#561=ORIENTED_EDGE('',*,*,#420,.F.);
#562=ORIENTED_EDGE('',*,*,#412,.T.);
#563=ORIENTED_EDGE('',*,*,#421,.T.);
#564=ORIENTED_EDGE('',*,*,#422,.T.);
#565=ORIENTED_EDGE('',*,*,#423,.T.);
#566=ORIENTED_EDGE('',*,*,#424,.T.);
#567=ORIENTED_EDGE('',*,*,#425,.T.);
#568=ORIENTED_EDGE('',*,*,#418,.T.);
#569=ORIENTED_EDGE('',*,*,#408,.T.);
#570=ORIENTED_EDGE('',*,*,#351,.T.);
#571=ORIENTED_EDGE('',*,*,#348,.T.);
#572=ORIENTED_EDGE('',*,*,#353,.T.);
#573=ORIENTED_EDGE('',*,*,#355,.T.);
#574=ORIENTED_EDGE('',*,*,#359,.T.);
#575=ORIENTED_EDGE('',*,*,#356,.T.);
#576=ORIENTED_EDGE('',*,*,#361,.T.);
#577=ORIENTED_EDGE('',*,*,#363,.T.);
#578=ORIENTED_EDGE('',*,*,#422,.F.);
#579=ORIENTED_EDGE('',*,*,#426,.F.);
#580=ORIENTED_EDGE('',*,*,#390,.F.);
#581=ORIENTED_EDGE('',*,*,#427,.F.);
#582=ORIENTED_EDGE('',*,*,#423,.F.);
#583=ORIENTED_EDGE('',*,*,#427,.T.);
#584=ORIENTED_EDGE('',*,*,#389,.F.);
#585=ORIENTED_EDGE('',*,*,#428,.F.);
#586=ORIENTED_EDGE('',*,*,#424,.F.);
#587=ORIENTED_EDGE('',*,*,#428,.T.);
#588=ORIENTED_EDGE('',*,*,#392,.F.);
#589=ORIENTED_EDGE('',*,*,#429,.F.);
#590=ORIENTED_EDGE('',*,*,#419,.T.);
#591=ORIENTED_EDGE('',*,*,#425,.F.);
#592=ORIENTED_EDGE('',*,*,#429,.T.);
#593=ORIENTED_EDGE('',*,*,#391,.F.);
#594=ORIENTED_EDGE('',*,*,#426,.T.);
#595=ORIENTED_EDGE('',*,*,#421,.F.);
#596=ORIENTED_EDGE('',*,*,#415,.T.);
#597=ORIENTED_EDGE('',*,*,#416,.T.);
#598=ORIENTED_EDGE('',*,*,#378,.F.);
#599=ORIENTED_EDGE('',*,*,#382,.T.);
#600=ORIENTED_EDGE('',*,*,#394,.F.);
#601=ORIENTED_EDGE('',*,*,#396,.F.);
#602=ORIENTED_EDGE('',*,*,#398,.F.);
#603=ORIENTED_EDGE('',*,*,#400,.T.);
#604=ORIENTED_EDGE('',*,*,#406,.F.);
#605=ORIENTED_EDGE('',*,*,#407,.T.);
#606=ORIENTED_EDGE('',*,*,#364,.T.);
#607=ORIENTED_EDGE('',*,*,#367,.T.);
#608=ORIENTED_EDGE('',*,*,#370,.T.);
#609=ORIENTED_EDGE('',*,*,#373,.T.);
#610=PLANE('',#684);
#611=PLANE('',#685);
#612=PLANE('',#686);
#613=PLANE('',#687);
#614=PLANE('',#688);
#615=PLANE('',#689);
#616=PLANE('',#690);
#617=PLANE('',#691);
#618=PLANE('',#692);
#619=PLANE('',#693);
#620=PLANE('',#709);
#621=PLANE('',#710);
#622=PLANE('',#716);
#623=PLANE('',#719);
#624=PLANE('',#722);
#625=PLANE('',#723);
#626=PLANE('',#724);
#627=PLANE('',#725);
#628=PLANE('',#726);
#629=PLANE('',#727);
#630=PLANE('',#728);
#631=PLANE('',#729);
#632=PLANE('',#730);
#633=PLANE('',#731);
#634=PLANE('',#732);
#635=PLANE('',#733);
#636=ADVANCED_FACE('',(#52),#610,.T.);
#637=ADVANCED_FACE('',(#53),#611,.T.);
#638=ADVANCED_FACE('',(#54),#612,.T.);
#639=ADVANCED_FACE('',(#55),#613,.T.);
#640=ADVANCED_FACE('',(#56),#614,.T.);
#641=ADVANCED_FACE('',(#57),#615,.T.);
#642=ADVANCED_FACE('',(#58),#616,.T.);
#643=ADVANCED_FACE('',(#59),#617,.T.);
#644=ADVANCED_FACE('',(#60),#618,.T.);
#645=ADVANCED_FACE('',(#61),#619,.T.);
#646=ADVANCED_FACE('',(#62),#44,.F.);
#647=ADVANCED_FACE('',(#63),#45,.F.);
#648=ADVANCED_FACE('',(#64),#46,.F.);
#649=ADVANCED_FACE('',(#65),#47,.F.);
#650=ADVANCED_FACE('',(#66),#48,.T.);
#651=ADVANCED_FACE('',(#67),#620,.T.);
#652=ADVANCED_FACE('',(#68,#16,#17,#18,#19,#20),#621,.T.);
#653=ADVANCED_FACE('',(#69),#49,.T.);
#654=ADVANCED_FACE('',(#70),#622,.T.);
#655=ADVANCED_FACE('',(#71),#50,.T.);
#656=ADVANCED_FACE('',(#72,#21),#623,.T.);
#657=ADVANCED_FACE('',(#73),#51,.T.);
#658=ADVANCED_FACE('',(#74),#624,.T.);
#659=ADVANCED_FACE('',(#75),#625,.F.);
#660=ADVANCED_FACE('',(#76),#626,.F.);
#661=ADVANCED_FACE('',(#77),#627,.F.);
#662=ADVANCED_FACE('',(#78),#628,.F.);
#663=ADVANCED_FACE('',(#79),#629,.F.);
#664=ADVANCED_FACE('',(#80,#22,#23),#630,.T.);
#665=ADVANCED_FACE('',(#81),#631,.F.);
#666=ADVANCED_FACE('',(#82),#632,.F.);
#667=ADVANCED_FACE('',(#83),#633,.T.);
#668=ADVANCED_FACE('',(#84),#634,.T.);
#669=ADVANCED_FACE('',(#85,#24,#25,#26,#27),#635,.F.);
#670=CLOSED_SHELL('',(#636,#637,#638,#639,#640,#641,#642,#643,#644,#645,
#646,#647,#648,#649,#650,#651,#652,#653,#654,#655,#656,#657,#658,#659,#660,
#661,#662,#663,#664,#665,#666,#667,#668,#669));
#671=DERIVED_UNIT_ELEMENT(#673,1.);
#672=DERIVED_UNIT_ELEMENT(#1100,-3.);
#673=(
MASS_UNIT()
NAMED_UNIT(*)
SI_UNIT(.KILO.,.GRAM.)
);
#674=DERIVED_UNIT((#671,#672));
#675=MEASURE_REPRESENTATION_ITEM('density measure',
POSITIVE_RATIO_MEASURE(7850.),#674);
#676=PROPERTY_DEFINITION_REPRESENTATION(#681,#678);
#677=PROPERTY_DEFINITION_REPRESENTATION(#682,#679);
#678=REPRESENTATION('material name',(#680),#1097);
#679=REPRESENTATION('density',(#675),#1097);
#680=DESCRIPTIVE_REPRESENTATION_ITEM('Steel','Steel');
#681=PROPERTY_DEFINITION('material property','material name',#1107);
#682=PROPERTY_DEFINITION('material property','density of part',#1107);
#683=AXIS2_PLACEMENT_3D('',#910,#734,#735);
#684=AXIS2_PLACEMENT_3D('',#911,#736,#737);
#685=AXIS2_PLACEMENT_3D('',#920,#742,#743);
#686=AXIS2_PLACEMENT_3D('',#929,#748,#749);
#687=AXIS2_PLACEMENT_3D('',#935,#753,#754);
#688=AXIS2_PLACEMENT_3D('',#939,#757,#758);
#689=AXIS2_PLACEMENT_3D('',#943,#761,#762);
#690=AXIS2_PLACEMENT_3D('',#945,#764,#765);
#691=AXIS2_PLACEMENT_3D('',#951,#769,#770);
#692=AXIS2_PLACEMENT_3D('',#955,#773,#774);
#693=AXIS2_PLACEMENT_3D('',#959,#777,#778);
#694=AXIS2_PLACEMENT_3D('',#961,#780,#781);
#695=AXIS2_PLACEMENT_3D('',#963,#782,#783);
#696=AXIS2_PLACEMENT_3D('',#966,#785,#786);
#697=AXIS2_PLACEMENT_3D('',#967,#787,#788);
#698=AXIS2_PLACEMENT_3D('',#969,#789,#790);
#699=AXIS2_PLACEMENT_3D('',#972,#792,#793);
#700=AXIS2_PLACEMENT_3D('',#973,#794,#795);
#701=AXIS2_PLACEMENT_3D('',#975,#796,#797);
#702=AXIS2_PLACEMENT_3D('',#978,#799,#800);
#703=AXIS2_PLACEMENT_3D('',#979,#801,#802);
#704=AXIS2_PLACEMENT_3D('',#981,#803,#804);
#705=AXIS2_PLACEMENT_3D('',#984,#806,#807);
#706=AXIS2_PLACEMENT_3D('',#985,#808,#809);
#707=AXIS2_PLACEMENT_3D('',#988,#810,#811);
#708=AXIS2_PLACEMENT_3D('',#992,#813,#814);
#709=AXIS2_PLACEMENT_3D('',#994,#816,#817);
#710=AXIS2_PLACEMENT_3D('',#1000,#821,#822);
#711=AXIS2_PLACEMENT_3D('',#1004,#824,#825);
#712=AXIS2_PLACEMENT_3D('',#1008,#827,#828);
#713=AXIS2_PLACEMENT_3D('',#1011,#830,#831);
#714=AXIS2_PLACEMENT_3D('',#1020,#836,#837);
#715=AXIS2_PLACEMENT_3D('',#1023,#839,#840);
#716=AXIS2_PLACEMENT_3D('',#1024,#841,#842);
#717=AXIS2_PLACEMENT_3D('',#1028,#845,#846);
#718=AXIS2_PLACEMENT_3D('',#1031,#848,#849);
#719=AXIS2_PLACEMENT_3D('',#1032,#850,#851);
#720=AXIS2_PLACEMENT_3D('',#1044,#858,#859);
#721=AXIS2_PLACEMENT_3D('',#1047,#861,#862);
#722=AXIS2_PLACEMENT_3D('',#1048,#863,#864);
#723=AXIS2_PLACEMENT_3D('',#1050,#866,#867);
#724=AXIS2_PLACEMENT_3D('',#1059,#872,#873);
#725=AXIS2_PLACEMENT_3D('',#1066,#878,#879);
#726=AXIS2_PLACEMENT_3D('',#1070,#882,#883);
#727=AXIS2_PLACEMENT_3D('',#1075,#887,#888);
#728=AXIS2_PLACEMENT_3D('',#1076,#889,#890);
#729=AXIS2_PLACEMENT_3D('',#1086,#896,#897);
#730=AXIS2_PLACEMENT_3D('',#1089,#900,#901);
#731=AXIS2_PLACEMENT_3D('',#1091,#903,#904);
#732=AXIS2_PLACEMENT_3D('',#1093,#906,#907);
#733=AXIS2_PLACEMENT_3D('',#1094,#908,#909);
#734=DIRECTION('axis',(0.,0.,1.));
#735=DIRECTION('refdir',(1.,0.,0.));
#736=DIRECTION('center_axis',(0.,0.,1.));
#737=DIRECTION('ref_axis',(1.,0.,0.));
#738=DIRECTION('',(1.,0.,0.));
#739=DIRECTION('',(0.,1.,0.));
#740=DIRECTION('',(-1.,0.,0.));
#741=DIRECTION('',(0.,-1.,0.));
#742=DIRECTION('center_axis',(0.,0.,1.));
#743=DIRECTION('ref_axis',(1.,0.,0.));
#744=DIRECTION('',(0.,-1.,0.));
#745=DIRECTION('',(1.,0.,0.));
#746=DIRECTION('',(0.,1.,0.));
#747=DIRECTION('',(-1.,0.,0.));
#748=DIRECTION('center_axis',(1.,0.,0.));
#749=DIRECTION('ref_axis',(0.,1.,0.));
#750=DIRECTION('',(0.,-1.,0.));
#751=DIRECTION('',(0.,0.,1.));
#752=DIRECTION('',(0.,0.,1.));
#753=DIRECTION('center_axis',(0.,1.,0.));
#754=DIRECTION('ref_axis',(-1.,0.,0.));
#755=DIRECTION('',(1.,0.,0.));
#756=DIRECTION('',(0.,0.,1.));
#757=DIRECTION('center_axis',(0.,-1.,0.));
#758=DIRECTION('ref_axis',(1.,0.,0.));
#759=DIRECTION('',(-1.,0.,0.));
#760=DIRECTION('',(0.,0.,1.));
#761=DIRECTION('center_axis',(-1.,0.,0.));
#762=DIRECTION('ref_axis',(0.,-1.,0.));
#763=DIRECTION('',(0.,1.,0.));
#764=DIRECTION('center_axis',(0.,1.,0.));
#765=DIRECTION('ref_axis',(-1.,0.,0.));
#766=DIRECTION('',(1.,0.,0.));
#767=DIRECTION('',(0.,0.,1.));
#768=DIRECTION('',(0.,0.,1.));
#769=DIRECTION('center_axis',(-1.,0.,0.));
#770=DIRECTION('ref_axis',(0.,-1.,0.));
#771=DIRECTION('',(0.,1.,0.));
#772=DIRECTION('',(0.,0.,1.));
#773=DIRECTION('center_axis',(1.,0.,0.));
#774=DIRECTION('ref_axis',(0.,1.,0.));
#775=DIRECTION('',(0.,-1.,0.));
#776=DIRECTION('',(0.,0.,1.));
#777=DIRECTION('center_axis',(0.,-1.,0.));
#778=DIRECTION('ref_axis',(1.,0.,0.));
#779=DIRECTION('',(-1.,0.,0.));
#780=DIRECTION('center_axis',(0.,0.,1.));
#781=DIRECTION('ref_axis',(1.,0.,0.));
#782=DIRECTION('center_axis',(0.,0.,1.));
#783=DIRECTION('ref_axis',(1.,0.,0.));
#784=DIRECTION('',(0.,0.,1.));
#785=DIRECTION('center_axis',(0.,0.,-1.));
#786=DIRECTION('ref_axis',(1.,0.,0.));
#787=DIRECTION('center_axis',(0.,0.,1.));
#788=DIRECTION('ref_axis',(1.,0.,0.));
#789=DIRECTION('center_axis',(0.,0.,1.));
#790=DIRECTION('ref_axis',(1.,0.,0.));
#791=DIRECTION('',(0.,0.,1.));
#792=DIRECTION('center_axis',(0.,0.,-1.));
#793=DIRECTION('ref_axis',(1.,0.,0.));
#794=DIRECTION('center_axis',(0.,0.,1.));
#795=DIRECTION('ref_axis',(1.,0.,0.));
#796=DIRECTION('center_axis',(0.,0.,1.));
#797=DIRECTION('ref_axis',(1.,0.,0.));
#798=DIRECTION('',(0.,0.,1.));
#799=DIRECTION('center_axis',(0.,0.,-1.));
#800=DIRECTION('ref_axis',(1.,0.,0.));
#801=DIRECTION('center_axis',(0.,0.,1.));
#802=DIRECTION('ref_axis',(1.,0.,0.));
#803=DIRECTION('center_axis',(0.,0.,1.));
#804=DIRECTION('ref_axis',(1.,0.,0.));
#805=DIRECTION('',(0.,0.,1.));
#806=DIRECTION('center_axis',(0.,0.,-1.));
#807=DIRECTION('ref_axis',(1.,0.,0.));
#808=DIRECTION('center_axis',(0.,0.,1.));
#809=DIRECTION('ref_axis',(0.707106781186547,0.707106781186547,0.));
#810=DIRECTION('center_axis',(0.,0.,-1.));
#811=DIRECTION('ref_axis',(0.707106781186547,0.707106781186547,0.));
#812=DIRECTION('',(0.,0.,-1.));
#813=DIRECTION('center_axis',(0.,0.,1.));
#814=DIRECTION('ref_axis',(0.707106781186547,0.707106781186547,0.));
#815=DIRECTION('',(0.,0.,1.));
#816=DIRECTION('center_axis',(1.,0.,0.));
#817=DIRECTION('ref_axis',(0.,0.,-1.));
#818=DIRECTION('',(0.,1.,0.));
#819=DIRECTION('',(0.,0.,1.));
#820=DIRECTION('',(0.,-1.,0.));
#821=DIRECTION('center_axis',(0.,0.,1.));
#822=DIRECTION('ref_axis',(1.,0.,0.));
#823=DIRECTION('',(-1.,0.,0.));
#824=DIRECTION('center_axis',(0.,0.,-1.));
#825=DIRECTION('ref_axis',(-0.707106781186547,0.707106781186547,0.));
#826=DIRECTION('',(0.,-1.,0.));
#827=DIRECTION('center_axis',(0.,0.,-1.));
#828=DIRECTION('ref_axis',(-0.707106781186547,-0.707106781186548,0.));
#829=DIRECTION('',(1.,0.,0.));
#830=DIRECTION('center_axis',(0.,0.,-1.));
#831=DIRECTION('ref_axis',(0.707106781186547,-0.707106781186547,0.));
#832=DIRECTION('',(0.,-1.,0.));
#833=DIRECTION('',(-1.,0.,0.));
#834=DIRECTION('',(0.,1.,0.));
#835=DIRECTION('',(1.,0.,0.));
#836=DIRECTION('center_axis',(0.,0.,1.));
#837=DIRECTION('ref_axis',(0.707106781186547,-0.707106781186547,0.));
#838=DIRECTION('',(0.,0.,-1.));
#839=DIRECTION('center_axis',(0.,0.,1.));
#840=DIRECTION('ref_axis',(0.707106781186547,-0.707106781186547,0.));
#841=DIRECTION('center_axis',(0.,-1.,0.));
#842=DIRECTION('ref_axis',(0.,0.,-1.));
#843=DIRECTION('',(0.,0.,1.));
#844=DIRECTION('',(1.,0.,0.));
#845=DIRECTION('center_axis',(0.,0.,1.));
#846=DIRECTION('ref_axis',(-0.707106781186547,-0.707106781186548,0.));
#847=DIRECTION('',(0.,0.,-1.));
#848=DIRECTION('center_axis',(0.,0.,1.));
#849=DIRECTION('ref_axis',(-0.707106781186547,-0.707106781186548,0.));
#850=DIRECTION('center_axis',(-1.,0.,0.));
#851=DIRECTION('ref_axis',(0.,-1.,0.));
#852=DIRECTION('',(0.,0.,1.));
#853=DIRECTION('',(0.,1.,0.));
#854=DIRECTION('',(0.,0.,-1.));
#855=DIRECTION('',(0.,1.,0.));
#856=DIRECTION('',(0.,0.,1.));
#857=DIRECTION('',(0.,-1.,0.));
#858=DIRECTION('center_axis',(0.,0.,1.));
#859=DIRECTION('ref_axis',(-0.707106781186547,0.707106781186547,0.));
#860=DIRECTION('',(0.,0.,-1.));
#861=DIRECTION('center_axis',(0.,0.,1.));
#862=DIRECTION('ref_axis',(-0.707106781186547,0.707106781186547,0.));
#863=DIRECTION('center_axis',(0.,1.,0.));
#864=DIRECTION('ref_axis',(-1.,0.,0.));
#865=DIRECTION('',(1.,0.,0.));
#866=DIRECTION('center_axis',(1.,0.,0.));
#867=DIRECTION('ref_axis',(0.,0.,-1.));
#868=DIRECTION('',(0.,-1.,0.));
#869=DIRECTION('',(0.,0.,1.));
#870=DIRECTION('',(0.,1.,0.));
#871=DIRECTION('',(0.,0.,-1.));
#872=DIRECTION('center_axis',(0.,-1.,0.));
#873=DIRECTION('ref_axis',(0.,0.,-1.));
#874=DIRECTION('',(-1.,0.,0.));
#875=DIRECTION('',(1.,0.,0.));
#876=DIRECTION('',(1.,0.,0.));
#877=DIRECTION('',(0.,0.,1.));
#878=DIRECTION('center_axis',(0.,0.,1.));
#879=DIRECTION('ref_axis',(0.,-1.,0.));
#880=DIRECTION('',(0.,1.,0.));
#881=DIRECTION('',(1.,0.,0.));
#882=DIRECTION('center_axis',(0.,1.,0.));
#883=DIRECTION('ref_axis',(0.,0.,1.));
#884=DIRECTION('',(1.,0.,0.));
#885=DIRECTION('',(0.,0.,-1.));
#886=DIRECTION('',(1.,0.,0.));
#887=DIRECTION('center_axis',(0.,0.,-1.));
#888=DIRECTION('ref_axis',(0.,1.,0.));
#889=DIRECTION('center_axis',(0.,0.,1.));
#890=DIRECTION('ref_axis',(1.,0.,0.));
#891=DIRECTION('',(0.,-1.,0.));
#892=DIRECTION('',(1.,0.,0.));
#893=DIRECTION('',(0.,1.,0.));
#894=DIRECTION('',(-1.,0.,0.));
#895=DIRECTION('',(0.,-1.,0.));
#896=DIRECTION('center_axis',(0.,-1.,0.));
#897=DIRECTION('ref_axis',(0.,0.,-1.));
#898=DIRECTION('',(0.,0.,-1.));
#899=DIRECTION('',(0.,0.,1.));
#900=DIRECTION('center_axis',(1.,0.,0.));
#901=DIRECTION('ref_axis',(0.,0.,-1.));
#902=DIRECTION('',(0.,0.,1.));
#903=DIRECTION('center_axis',(0.,-1.,0.));
#904=DIRECTION('ref_axis',(1.,0.,0.));
#905=DIRECTION('',(0.,0.,1.));
#906=DIRECTION('center_axis',(1.,0.,0.));
#907=DIRECTION('ref_axis',(0.,1.,0.));
#908=DIRECTION('center_axis',(0.,0.,1.));
#909=DIRECTION('ref_axis',(1.,0.,0.));
#910=CARTESIAN_POINT('',(0.,0.,0.));
#911=CARTESIAN_POINT('Origin',(28.0000004172325,56.000000834465,12.));
#912=CARTESIAN_POINT('',(24.0000003576279,55.0000008195639,12.));
#913=CARTESIAN_POINT('',(32.0000004768372,55.0000008195639,12.));
#914=CARTESIAN_POINT('',(24.0000003576279,55.0000008195639,12.));
#915=CARTESIAN_POINT('',(32.0000004768372,57.0000008493662,12.));
#916=CARTESIAN_POINT('',(32.0000004768372,55.0000008195639,12.));
#917=CARTESIAN_POINT('',(24.0000003576279,57.0000008493662,12.));
#918=CARTESIAN_POINT('',(32.0000004768372,57.0000008493662,12.));
#919=CARTESIAN_POINT('',(24.0000003576279,57.0000008493662,12.));
#920=CARTESIAN_POINT('Origin',(19.0000002831221,26.0000003874302,12.));
#921=CARTESIAN_POINT('',(18.0000002682209,30.0000004470348,12.));
#922=CARTESIAN_POINT('',(18.0000002682209,22.0000003278255,12.));
#923=CARTESIAN_POINT('',(18.0000002682209,22.0000003278255,12.));
#924=CARTESIAN_POINT('',(20.0000002980232,22.0000003278255,12.));
#925=CARTESIAN_POINT('',(20.0000002980232,22.0000003278255,12.));
#926=CARTESIAN_POINT('',(20.0000002980232,30.0000004470348,12.));
#927=CARTESIAN_POINT('',(20.0000002980232,30.0000004470348,12.));
#928=CARTESIAN_POINT('',(18.0000002682209,30.0000004470348,12.));
#929=CARTESIAN_POINT('Origin',(20.0000002980232,22.0000003278255,0.));
#930=CARTESIAN_POINT('',(20.0000002980232,30.0000004470348,5.));
#931=CARTESIAN_POINT('',(20.0000002980232,22.0000003278255,5.));
#932=CARTESIAN_POINT('',(20.0000002980232,31.5000001639128,5.));
#933=CARTESIAN_POINT('',(20.0000002980232,30.0000004470348,0.));
#934=CARTESIAN_POINT('',(20.0000002980232,22.0000003278255,0.));
#935=CARTESIAN_POINT('Origin',(20.0000002980232,30.0000004470348,0.));
#936=CARTESIAN_POINT('',(18.0000002682209,30.0000004470348,5.));
#937=CARTESIAN_POINT('',(23.7500001490116,30.0000004470348,5.));
#938=CARTESIAN_POINT('',(18.0000002682209,30.0000004470348,0.));
#939=CARTESIAN_POINT('Origin',(18.0000002682209,22.0000003278255,0.));
#940=CARTESIAN_POINT('',(18.0000002682209,22.0000003278255,5.));
#941=CARTESIAN_POINT('',(22.7500001341105,22.0000003278255,5.));
#942=CARTESIAN_POINT('',(18.0000002682209,22.0000003278255,0.));
#943=CARTESIAN_POINT('Origin',(18.0000002682209,30.0000004470348,0.));
#944=CARTESIAN_POINT('',(18.0000002682209,35.5000002235174,5.));
#945=CARTESIAN_POINT('Origin',(32.0000004768372,57.0000008493662,0.));
#946=CARTESIAN_POINT('',(24.0000003576279,57.0000008493662,5.));
#947=CARTESIAN_POINT('',(32.0000004768372,57.0000008493662,5.));
#948=CARTESIAN_POINT('',(29.7500002384186,57.0000008493662,5.));
#949=CARTESIAN_POINT('',(24.0000003576279,57.0000008493662,0.));
#950=CARTESIAN_POINT('',(32.0000004768372,57.0000008493662,0.));
#951=CARTESIAN_POINT('Origin',(24.0000003576279,57.0000008493662,0.));
#952=CARTESIAN_POINT('',(24.0000003576279,55.0000008195639,5.));
#953=CARTESIAN_POINT('',(24.0000003576279,49.0000004246831,5.));
#954=CARTESIAN_POINT('',(24.0000003576279,55.0000008195639,0.));
#955=CARTESIAN_POINT('Origin',(32.0000004768372,55.0000008195639,0.));
#956=CARTESIAN_POINT('',(32.0000004768372,55.0000008195639,5.));
#957=CARTESIAN_POINT('',(32.0000004768372,48.0000004097819,5.));
#958=CARTESIAN_POINT('',(32.0000004768372,55.0000008195639,0.));
#959=CARTESIAN_POINT('Origin',(24.0000003576279,55.0000008195639,0.));
#960=CARTESIAN_POINT('',(25.7500001788139,55.0000008195639,5.));
#961=CARTESIAN_POINT('Origin',(57.9999999701977,-3.00000002980232,0.));
#962=CARTESIAN_POINT('',(56.9999999701977,-3.00000002980232,0.));
#963=CARTESIAN_POINT('Origin',(57.9999999701977,-3.00000002980232,0.));
#964=CARTESIAN_POINT('',(56.9999999701977,-3.00000002980232,21.));
#965=CARTESIAN_POINT('',(56.9999999701977,-3.00000002980232,0.));
#966=CARTESIAN_POINT('Origin',(57.9999999701977,-3.00000002980232,21.));
#967=CARTESIAN_POINT('Origin',(57.9999999701977,83.9999999701977,0.));
#968=CARTESIAN_POINT('',(56.9999999701977,83.9999999701977,0.));
#969=CARTESIAN_POINT('Origin',(57.9999999701977,83.9999999701977,0.));
#970=CARTESIAN_POINT('',(56.9999999701977,83.9999999701977,21.));
#971=CARTESIAN_POINT('',(56.9999999701977,83.9999999701977,0.));
#972=CARTESIAN_POINT('Origin',(57.9999999701977,83.9999999701977,21.));
#973=CARTESIAN_POINT('Origin',(-2.00000002980232,-3.00000002980232,0.));
#974=CARTESIAN_POINT('',(-3.00000002980232,-3.00000002980232,0.));
#975=CARTESIAN_POINT('Origin',(-2.00000002980232,-3.00000002980232,0.));
#976=CARTESIAN_POINT('',(-3.00000002980232,-3.00000002980232,21.));
#977=CARTESIAN_POINT('',(-3.00000002980232,-3.00000002980232,0.));
#978=CARTESIAN_POINT('Origin',(-2.00000002980232,-3.00000002980232,21.));
#979=CARTESIAN_POINT('Origin',(-2.00000002980232,83.9999999701977,0.));
#980=CARTESIAN_POINT('',(-3.00000002980232,83.9999999701977,0.));
#981=CARTESIAN_POINT('Origin',(-2.00000002980232,83.9999999701977,0.));
#982=CARTESIAN_POINT('',(-3.00000002980232,83.9999999701977,21.));
#983=CARTESIAN_POINT('',(-3.00000002980232,83.9999999701977,0.));
#984=CARTESIAN_POINT('Origin',(-2.00000002980232,83.9999999701977,21.));
#985=CARTESIAN_POINT('Origin',(56.,82.,0.));
#986=CARTESIAN_POINT('',(56.,87.,21.));
#987=CARTESIAN_POINT('',(61.,82.,21.));
#988=CARTESIAN_POINT('Origin',(56.,82.,21.));
#989=CARTESIAN_POINT('',(61.,82.,0.));
#990=CARTESIAN_POINT('',(61.,82.,0.));
#991=CARTESIAN_POINT('',(56.,87.,0.));
#992=CARTESIAN_POINT('Origin',(56.,82.,0.));
#993=CARTESIAN_POINT('',(56.,87.,0.));
#994=CARTESIAN_POINT('Origin',(61.,-5.,0.));
#995=CARTESIAN_POINT('',(61.,-0.999999999999996,21.));
#996=CARTESIAN_POINT('',(61.,87.,21.));
#997=CARTESIAN_POINT('',(61.,-1.,0.));
#998=CARTESIAN_POINT('',(61.,-1.,0.));
#999=CARTESIAN_POINT('',(61.,-5.,0.));
#1000=CARTESIAN_POINT('Origin',(27.5,41.,21.));
#1001=CARTESIAN_POINT('',(0.,87.,21.));
#1002=CARTESIAN_POINT('',(60.,87.,21.));
#1003=CARTESIAN_POINT('',(-5.,82.,21.));
#1004=CARTESIAN_POINT('Origin',(0.,82.,21.));
#1005=CARTESIAN_POINT('',(-5.,-0.999999999999996,21.));
#1006=CARTESIAN_POINT('',(-5.,-5.,21.));
#1007=CARTESIAN_POINT('',(0.,-6.,21.));
#1008=CARTESIAN_POINT('Origin',(0.,-0.999999999999996,21.));
#1009=CARTESIAN_POINT('',(56.,-6.,21.));
#1010=CARTESIAN_POINT('',(60.,-6.,21.));
#1011=CARTESIAN_POINT('Origin',(56.,-1.,21.));
#1012=CARTESIAN_POINT('',(56.,82.,21.));
#1013=CARTESIAN_POINT('',(56.,-0.999999999999996,21.));
#1014=CARTESIAN_POINT('',(56.,20.5,21.));
#1015=CARTESIAN_POINT('',(0.,-0.999999999999996,21.));
#1016=CARTESIAN_POINT('',(41.25,-0.999999999999996,21.));
#1017=CARTESIAN_POINT('',(0.,82.,21.));
#1018=CARTESIAN_POINT('',(0.,20.5,21.));
#1019=CARTESIAN_POINT('',(55.,82.,21.));
#1020=CARTESIAN_POINT('Origin',(56.,-1.,0.));
#1021=CARTESIAN_POINT('',(56.,-6.,0.));
#1022=CARTESIAN_POINT('',(56.,-6.,0.));
#1023=CARTESIAN_POINT('Origin',(56.,-1.,0.));
#1024=CARTESIAN_POINT('Origin',(-5.,-6.,0.));
#1025=CARTESIAN_POINT('',(0.,-6.,0.));
#1026=CARTESIAN_POINT('',(0.,-6.,0.));
#1027=CARTESIAN_POINT('',(60.,-6.,0.));
#1028=CARTESIAN_POINT('Origin',(0.,-0.999999999999996,0.));
#1029=CARTESIAN_POINT('',(-5.,-0.999999999999996,0.));
#1030=CARTESIAN_POINT('',(-5.,-0.999999999999996,0.));
#1031=CARTESIAN_POINT('Origin',(0.,-0.999999999999996,0.));
#1032=CARTESIAN_POINT('Origin',(-5.,87.,0.));
#1033=CARTESIAN_POINT('',(-5.,82.,0.));
#1034=CARTESIAN_POINT('',(-5.,82.,0.));
#1035=CARTESIAN_POINT('',(-5.,-5.,0.));
#1036=CARTESIAN_POINT('',(-5.,57.0000008493662,12.0000001788139));
#1037=CARTESIAN_POINT('',(-5.,57.0000008493662,3.13286644942956));
#1038=CARTESIAN_POINT('',(-5.,57.0000008493662,6.00000008940697));
#1039=CARTESIAN_POINT('',(-5.,74.1647481872515,3.13286644942956));
#1040=CARTESIAN_POINT('',(-5.,72.0000004246831,3.13286644942956));
#1041=CARTESIAN_POINT('',(-5.,74.1647481872515,12.0000001788139));
#1042=CARTESIAN_POINT('',(-5.,74.1647481872515,1.56643322471478));
#1043=CARTESIAN_POINT('',(-5.,80.5823740936257,12.0000001788139));
#1044=CARTESIAN_POINT('Origin',(0.,82.,0.));
#1045=CARTESIAN_POINT('',(0.,87.,0.));
#1046=CARTESIAN_POINT('',(0.,87.,0.));
#1047=CARTESIAN_POINT('Origin',(0.,82.,0.));
#1048=CARTESIAN_POINT('Origin',(60.,87.,0.));
#1049=CARTESIAN_POINT('',(60.,87.,0.));
#1050=CARTESIAN_POINT('Origin',(7.,65.5823745183088,7.56643331412175));
#1051=CARTESIAN_POINT('',(7.,74.1647481872515,5.));
#1052=CARTESIAN_POINT('',(7.,57.0000008493662,5.));
#1053=CARTESIAN_POINT('',(7.,53.2911872591544,5.));
#1054=CARTESIAN_POINT('',(7.,74.1647481872515,3.13286644942956));
#1055=CARTESIAN_POINT('',(7.,74.1647481872515,3.13286644942956));
#1056=CARTESIAN_POINT('',(7.,57.0000008493662,3.13286644942956));
#1057=CARTESIAN_POINT('',(7.,57.0000008493662,3.13286644942956));
#1058=CARTESIAN_POINT('',(7.,57.0000008493662,12.0000001788139));
#1059=CARTESIAN_POINT('Origin',(-5.,57.0000008493662,12.0000001788139));
#1060=CARTESIAN_POINT('',(0.,57.0000008493662,5.));
#1061=CARTESIAN_POINT('',(11.25,57.0000008493662,5.));
#1062=CARTESIAN_POINT('',(-5.,57.0000008493662,3.13286644942956));
#1063=CARTESIAN_POINT('',(0.,57.0000008493662,12.0000001788139));
#1064=CARTESIAN_POINT('',(-5.,57.0000008493662,12.0000001788139));
#1065=CARTESIAN_POINT('',(0.,57.0000008493662,6.00000008940697));
#1066=CARTESIAN_POINT('Origin',(-5.,74.1647481872515,12.0000001788139));
#1067=CARTESIAN_POINT('',(0.,74.1647481872515,12.0000001788139));
#1068=CARTESIAN_POINT('',(0.,37.0823740936257,12.0000001788139));
#1069=CARTESIAN_POINT('',(-5.,74.1647481872515,12.0000001788139));
#1070=CARTESIAN_POINT('Origin',(-5.,74.1647481872515,3.13286644942956));
#1071=CARTESIAN_POINT('',(0.,74.1647481872515,5.));
#1072=CARTESIAN_POINT('',(11.25,74.1647481872515,5.));
#1073=CARTESIAN_POINT('',(0.,74.1647481872515,1.56643322471478));
#1074=CARTESIAN_POINT('',(-5.,74.1647481872515,3.13286644942956));
#1075=CARTESIAN_POINT('Origin',(-5.,57.0000008493662,3.13286644942956));
#1076=CARTESIAN_POINT('Origin',(27.5,41.,5.));
#1077=CARTESIAN_POINT('',(0.,-1.,5.));
#1078=CARTESIAN_POINT('',(0.,0.,5.));
#1079=CARTESIAN_POINT('',(56.,-1.,5.));
#1080=CARTESIAN_POINT('',(41.25,-1.,5.));
#1081=CARTESIAN_POINT('',(56.,82.,5.));
#1082=CARTESIAN_POINT('',(56.,61.5,5.));
#1083=CARTESIAN_POINT('',(0.,82.,5.));
#1084=CARTESIAN_POINT('',(13.75,82.,5.));
#1085=CARTESIAN_POINT('',(0.,0.,5.));
#1086=CARTESIAN_POINT('Origin',(55.,-1.,0.));
#1087=CARTESIAN_POINT('',(0.,-1.,0.));
#1088=CARTESIAN_POINT('',(56.,-1.,15.));
#1089=CARTESIAN_POINT('Origin',(56.,82.,0.));
#1090=CARTESIAN_POINT('',(56.,82.,15.));
#1091=CARTESIAN_POINT('Origin',(0.,82.,0.));
#1092=CARTESIAN_POINT('',(0.,82.,0.));
#1093=CARTESIAN_POINT('Origin',(0.,0.,0.));
#1094=CARTESIAN_POINT('Origin',(27.5,41.,0.));
#1095=UNCERTAINTY_MEASURE_WITH_UNIT(LENGTH_MEASURE(0.01),#1099,
'DISTANCE_ACCURACY_VALUE',
'Maximum model space distance between geometric entities at asserted c
onnectivities');
#1096=UNCERTAINTY_MEASURE_WITH_UNIT(LENGTH_MEASURE(0.01),#1099,
'DISTANCE_ACCURACY_VALUE',
'Maximum model space distance between geometric entities at asserted c
onnectivities');
#1097=(
GEOMETRIC_REPRESENTATION_CONTEXT(3)
GLOBAL_UNCERTAINTY_ASSIGNED_CONTEXT((#1095))
GLOBAL_UNIT_ASSIGNED_CONTEXT((#1099,#1101,#1102))
REPRESENTATION_CONTEXT('','3D')
);
#1098=(
GEOMETRIC_REPRESENTATION_CONTEXT(3)
GLOBAL_UNCERTAINTY_ASSIGNED_CONTEXT((#1096))
GLOBAL_UNIT_ASSIGNED_CONTEXT((#1099,#1101,#1102))
REPRESENTATION_CONTEXT('','3D')
);
#1099=(
LENGTH_UNIT()
NAMED_UNIT(*)
SI_UNIT(.MILLI.,.METRE.)
);
#1100=(
LENGTH_UNIT()
NAMED_UNIT(*)
SI_UNIT($,.METRE.)
);
#1101=(
NAMED_UNIT(*)
PLANE_ANGLE_UNIT()
SI_UNIT($,.RADIAN.)
);
#1102=(
NAMED_UNIT(*)
SI_UNIT($,.STERADIAN.)
SOLID_ANGLE_UNIT()
);
#1103=SHAPE_DEFINITION_REPRESENTATION(#1104,#1105);
#1104=PRODUCT_DEFINITION_SHAPE('',$,#1107);
#1105=SHAPE_REPRESENTATION('',(#683),#1097);
#1106=PRODUCT_DEFINITION_CONTEXT('part definition',#1111,'design');
#1107=PRODUCT_DEFINITION('2026-05-23-16-49-58-351','EasyTalkie-Bottom',
#1108,#1106);
#1108=PRODUCT_DEFINITION_FORMATION('',$,#1113);
#1109=PRODUCT_RELATED_PRODUCT_CATEGORY('EasyTalkie-Bottom',
'EasyTalkie-Bottom',(#1113));
#1110=APPLICATION_PROTOCOL_DEFINITION('international standard',
'automotive_design',2009,#1111);
#1111=APPLICATION_CONTEXT(
'Core Data for Automotive Mechanical Design Process');
#1112=PRODUCT_CONTEXT('part definition',#1111,'mechanical');
#1113=PRODUCT('2026-05-23-16-49-58-351','EasyTalkie-Bottom',$,(#1112));
#1114=PRESENTATION_STYLE_ASSIGNMENT((#1117));
#1115=PRESENTATION_STYLE_ASSIGNMENT((#1118));
#1116=PRESENTATION_STYLE_ASSIGNMENT((#1119));
#1117=SURFACE_STYLE_USAGE(.BOTH.,#1120);
#1118=SURFACE_STYLE_USAGE(.BOTH.,#1121);
#1119=SURFACE_STYLE_USAGE(.BOTH.,#1122);
#1120=SURFACE_SIDE_STYLE('',(#1123));
#1121=SURFACE_SIDE_STYLE('',(#1124));
#1122=SURFACE_SIDE_STYLE('',(#1125));
#1123=SURFACE_STYLE_FILL_AREA(#1126);
#1124=SURFACE_STYLE_FILL_AREA(#1127);
#1125=SURFACE_STYLE_FILL_AREA(#1128);
#1126=FILL_AREA_STYLE('Steel - Satin',(#1129));
#1127=FILL_AREA_STYLE('Opaque(204,204,204)',(#1130));
#1128=FILL_AREA_STYLE('Opaque(59,59,59)',(#1131));
#1129=FILL_AREA_STYLE_COLOUR('Steel - Satin',#1132);
#1130=FILL_AREA_STYLE_COLOUR('Opaque(204,204,204)',#1133);
#1131=FILL_AREA_STYLE_COLOUR('Opaque(59,59,59)',#1134);
#1132=COLOUR_RGB('Steel - Satin',0.627450980392157,0.627450980392157,0.627450980392157);
#1133=COLOUR_RGB('Opaque(204,204,204)',0.8,0.8,0.8);
#1134=COLOUR_RGB('Opaque(59,59,59)',0.231372549019608,0.231372549019608,
0.231372549019608);
ENDSEC;
END-ISO-10303-21;
